{"title":"Terminus.2016.WEBRip.480p.x264.AAC-VYTO [P2PDL]","uid":13284888,"size":340502011,"categoryP":"video","categoryS":"movies","magnet":"?xt=urn:btih:5e9f96892d99a6c9add377243a42fd662b2720cb&amp;dn=Terminus.2016.WEBRip.480p.x264.AAC-VYTO+%5BP2PDL%5D&amp;tr=udp%3A%2F%2Ftracker.leechers-paradise.org%3A6969&amp;tr=udp%3A%2F%2Fzer0day.ch%3A1337&amp;tr=udp%3A%2F%2Fopen.demonii.com%3A1337&amp;tr=udp%3A%2F%2Ftracker.coppersurfer.tk%3A6969&amp;tr=udp%3A%2F%2Fexodus.desync.com%3A6969","seeders":0,"leechers":1,"uploader":"VYTOP2PDL","files":7,"time":1453531210,"description":"____    ____ ____    ____ .___________.  ______   \r\n     /   /      /   / |           | /  __    \r\n    /   /      /   /  `---|  |----`|  |  |  | \r\n        /     _    _/       |  |     |  |  |  | \r\n       /        |  |         |  |     |  `--'  | \r\n    __/         |__|         |__|      ______/  \r\n                                                  \r\nPresenting Small Encodes with quality for years!\r\n                                                                                                   \r\n                                                                                                   \r\n\r\n\r\nTerminus.2016.WEBRip.480p.x264.AAC-VYTO\r\n\r\n\r\nGenre: Sci-Fi   \nhttp://www.imdb.com/title/tt3399896/\r\n\r\n\r\n\r\nFormat                                   : MPEG-4\r\nFile size                                : 316 MiB\r\nDuration                                 : 1h 33mn\r\nOverall bit rate                         : 472 Kbps\r\n\r\nVideo\r\nFormat                                   : AVC\r\nBit rate                                 : 437 Kbps\r\nWidth                                    : 720 pixels\r\nHeight                                   : 304 pixels\r\nDisplay aspect ratio                     : 2.35:1\r\nFrame rate mode                          : Constant\r\nFrame rate                               : 24.000 fps\r\nBit depth                                : 8 bits\r\nStream size                              : 293 MiB (93%)\r\nWriting library                          : x264\r\n\r\nAudio\r\nFormat                                   : AAC\r\nBit rate mode                            : Variable\r\nBit rate                                 : 32.0 Kbps\r\nChannel(s)                               : 2 channels\r\nChannel positions                        : Front: L R\r\nSampling rate                            : 48.0 KHz \r\nStream size                              : 21.4 MiB (7%)\r\nLanguage                                 : English\r\n\r\nSubtitle                                 : Yes (English)\r\n\r\nSceen Shot: (Click to view)\r\n \nhttp://ititli.com/IY \nhttp://ititli.com/I4 \nhttp://ititli.com/IK \nhttp://ititli.com/IV \nhttp://ititli.com/It \nhttp://ititli.com/IL \nhttp://ititli.com/Id \nhttp://ititli.com/I0 \nhttp://ititli.com/IA\r\n\r\n----------------------------------------------------------------------------------------------------\r\n\r\n\r\nEncoder Notes: Looking For Early Access To Anything You Can Provide WEBDL, DVDScr, DVDR, BluRay,\r\nDirect Audio, Music Releases and Seedboxes. If You Got anything to offer please contact us.\r\n\r\nSupport us by donating BC - 1FgwdzPsd1y25Gea8wP1qni35uGCtmkRCD\r\n\r\nSend some love!\r\nFind us and join us!","torrent":{"xt":"urn:btih:5e9f96892d99a6c9add377243a42fd662b2720cb","amp;dn":"Terminus.2016.WEBRip.480p.x264.AAC-VYTO+%5BP2PDL%5D","amp;tr":["udp%3A%2F%2Ftracker.leechers-paradise.org%3A6969","udp%3A%2F%2Fzer0day.ch%3A1337","udp%3A%2F%2Fopen.demonii.com%3A1337","udp%3A%2F%2Ftracker.coppersurfer.tk%3A6969","udp%3A%2F%2Fexodus.desync.com%3A6969"],"infoHash":"5e9f96892d99a6c9add377243a42fd662b2720cb","infoHashBuffer":{"type":"Buffer","data":[94,159,150,137,45,153,166,201,173,211,119,36,58,66,253,102,43,39,32,203]},"announce":[],"urlList":[]}}